HIERARCHY
ROOT Hips
{
	OFFSET -0.001795 -0.223333 0.028219
	CHANNELS 6 Xposition Yposition Zposition Zrotation Yrotation Xrotation 
	JOINT LeftUpLeg
	{
		OFFSET 0.069520 -0.091406 -0.006815
		CHANNELS 3 Zrotation Yrotation Xrotation
		JOINT LeftLeg
		{
			OFFSET 0.034277 -0.375199 -0.004496
			CHANNELS 3 Zrotation Yrotation Xrotation
			JOINT LeftFoot
			{
				OFFSET -0.013596 -0.397961 -0.043693
				CHANNELS 3 Zrotation Yrotation Xrotation
				JOINT LeftToe
				{
					OFFSET 0.026358 -0.055791 0.119288
					CHANNELS 3 Zrotation Yrotation Xrotation
					End Site
					{
						OFFSET 0.000000 0.000000 0.000000
					}
				}
			}
		}
	}
	JOINT RightUpLeg
	{
		OFFSET -0.067670 -0.090522 -0.004320
		CHANNELS 3 Zrotation Yrotation Xrotation
		JOINT RightLeg
		{
			OFFSET -0.038290 -0.382569 -0.008850
			CHANNELS 3 Zrotation Yrotation Xrotation
			JOINT RightFoot
			{
				OFFSET 0.015774 -0.398415 -0.042312
				CHANNELS 3 Zrotation Yrotation Xrotation
				JOINT RightToe
				{
					OFFSET -0.025372 -0.048144 0.123348
					CHANNELS 3 Zrotation Yrotation Xrotation
					End Site
					{
						OFFSET 0.000000 0.000000 0.000000
					}
				}
			}
		}
	}
	JOINT Spine
	{
		OFFSET -0.002533 0.108963 -0.026696
		CHANNELS 3 Zrotation Yrotation Xrotation
		JOINT Spine1
		{
			OFFSET 0.005487 0.135180 0.001092
			CHANNELS 3 Zrotation Yrotation Xrotation
			JOINT Spine2
			{
				OFFSET 0.001457 0.052922 0.025425
				CHANNELS 3 Zrotation Yrotation Xrotation
				JOINT Neck
				{
					OFFSET -0.002778 0.213870 -0.042857
					CHANNELS 3 Zrotation Yrotation Xrotation
					JOINT Head
					{
						OFFSET 0.005152 0.064970 0.051349
						CHANNELS 3 Zrotation Yrotation Xrotation
						End Site
						{
							OFFSET 0.000000 0.000000 0.000000
						}
					}
				}
				JOINT LeftShoulder
				{
					OFFSET 0.078845 0.121749 -0.034090
					CHANNELS 3 Zrotation Yrotation Xrotation
					JOINT LeftArm
					{
						OFFSET 0.090977 0.030469 -0.008868
						CHANNELS 3 Zrotation Yrotation Xrotation
						JOINT LeftForeArm
						{
							OFFSET 0.259612 -0.012772 -0.027456
							CHANNELS 3 Zrotation Yrotation Xrotation
							JOINT LeftHand
							{
								OFFSET 0.249234 0.008986 -0.001171
								CHANNELS 3 Zrotation Yrotation Xrotation
								End Site
								{
									OFFSET 0.000000 0.000000 0.000000
								}
							}
						}
					}
				}
				JOINT RightShoulder
				{
					OFFSET -0.081759 0.118833 -0.038615
					CHANNELS 3 Zrotation Yrotation Xrotation
					JOINT RightArm
					{
						OFFSET -0.096012 0.032551 -0.009143
						CHANNELS 3 Zrotation Yrotation Xrotation
						JOINT RightForeArm
						{
							OFFSET -0.253742 -0.013329 -0.021401
							CHANNELS 3 Zrotation Yrotation Xrotation
							JOINT RightHand
							{
								OFFSET -0.255298 0.007772 -0.005559
								CHANNELS 3 Zrotation Yrotation Xrotation
								End Site
								{
									OFFSET 0.000000 0.000000 0.000000
								}
							}
						}
					}
				}
			}
		}
	}
}
MOTION
Frames: 15
Frame Time: 0.050000
0.000000 1.011871 0.000000 -2.265911 -3.974301 -1.960446 0.610497 0.525134 5.766509 0.362781 0.026618 -1.896937 -0.701859 2.655754 10.787757 0.000000 0.000000 0.000000 2.130360 -0.603702 4.856745 -1.300510 0.304020 3.237439 2.707448 1.213960 8.950216 0.000000 0.000000 0.000000 2.637671 -0.415689 6.644409 -2.160660 1.047222 0.352878 -1.357259 2.967350 6.573892 7.794507 -3.180437 -18.273560 0.000000 0.000000 0.000000 -22.391642 -9.653871 3.014752 -47.599617 -7.506087 -2.858221 -7.945242 -26.931280 2.870823 0.000000 0.000000 0.000000 24.417243 3.163035 0.051436 55.311782 6.557893 -2.733622 2.832508 23.444650 1.400848 0.000000 0.000000 0.000000 
-0.000304 1.012540 0.000961 -2.493883 -3.858965 -1.732411 0.831165 0.511997 5.765534 0.596296 0.037696 -2.764402 -0.545236 2.637378 9.873192 0.000000 0.000000 0.000000 2.407096 -0.537900 4.109541 -1.305078 0.332416 3.742139 1.543681 0.381871 5.859015 0.000000 0.000000 0.000000 2.497431 -0.417389 6.766191 -1.860483 0.901991 0.726945 -1.323067 3.450785 5.447010 8.007130 -2.994007 -19.585181 0.000000 0.000000 0.000000 -21.641259 -9.753443 2.856969 -48.883427 -6.404026 -3.216952 -8.383442 -27.441975 2.989280 0.000000 0.000000 0.000000 23.782787 2.491582 -0.175962 56.830584 5.569832 -3.164735 1.346051 24.959926 1.226390 0.000000 0.000000 0.000000 
-0.000436 1.014287 0.001975 -2.299502 -4.299819 -1.409509 0.681161 0.438628 4.855631 0.341672 0.007591 -1.329991 -0.174548 2.671273 8.130195 0.000000 0.000000 0.000000 2.537577 -0.521716 3.889478 -1.511486 0.330511 3.237612 1.378453 -0.046830 5.903685 0.000000 0.000000 0.000000 2.468028 -0.405776 6.573332 -1.194429 0.575372 -0.617982 -1.818255 4.434012 6.164054 8.091910 -3.199123 -18.218176 0.000000 0.000000 0.000000 -21.925414 -9.198010 2.311740 -48.333304 -6.509777 -3.131115 -9.656523 -27.134161 3.221508 0.000000 0.000000 0.000000 23.895760 2.575517 0.161413 55.890768 4.900342 -3.565319 1.978902 25.426185 1.430354 0.000000 0.000000 0.000000 
-0.000548 1.014787 0.002999 -2.432438 -4.668180 -1.949064 0.516905 0.556005 5.976313 0.720087 -0.020029 -1.661220 0.157200 2.808039 6.767455 0.000000 0.000000 0.000000 2.501058 -0.648995 5.062546 -1.276701 0.285680 2.971921 1.451044 0.233567 5.629688 0.000000 0.000000 0.000000 2.393142 -0.435036 7.290415 -0.842976 0.404017 0.305517 -1.738518 4.670519 4.978952 8.240083 -3.160740 -18.714199 0.000000 0.000000 0.000000 -22.108124 -8.859079 2.026551 -48.360487 -6.183344 -3.145868 -9.717978 -27.764047 3.289586 0.000000 0.000000 0.000000 24.045031 3.198934 0.512975 55.702814 5.238654 -3.299243 0.980356 25.144707 1.193153 0.000000 0.000000 0.000000 
-0.000607 1.014935 0.003839 -2.444672 -4.952441 -2.083042 0.183926 0.586282 6.081959 1.371057 -0.115318 -1.070864 0.507314 3.102348 5.708312 0.000000 0.000000 0.000000 2.385418 -0.668239 5.323714 -1.229115 0.272027 2.835935 1.487515 0.509355 5.236299 0.000000 0.000000 0.000000 2.594207 -0.444075 7.271545 -0.772826 0.369787 0.352995 -1.768252 5.061908 4.959327 8.320451 -3.280231 -18.122117 0.000000 0.000000 0.000000 -22.818612 -8.744683 1.839936 -48.002582 -5.939692 -3.178702 -10.087033 -27.728138 3.359071 0.000000 0.000000 0.000000 23.962204 3.009581 0.483089 55.454272 5.315488 -3.269327 1.428175 25.059977 1.289491 0.000000 0.000000 0.000000 
-0.000677 1.015004 0.004480 -2.488622 -4.969719 -2.137069 0.106998 0.600813 6.186335 1.523221 -0.145841 -0.773237 0.849270 3.369828 4.487763 0.000000 0.000000 0.000000 2.288112 -0.682359 5.515838 -1.058854 0.261691 3.038264 1.399322 0.616212 4.691971 0.000000 0.000000 0.000000 2.728329 -0.450751 7.251604 -0.637497 0.304048 0.274597 -1.772864 5.104089 5.050259 7.918292 -3.070499 -17.936485 0.000000 0.000000 0.000000 -23.137317 -8.664686 1.768630 -48.213833 -5.685812 -3.293697 -9.483313 -27.763557 3.215539 0.000000 0.000000 0.000000 24.211550 3.356184 0.702744 55.026052 5.546101 -3.168268 0.829492 24.677749 1.148504 0.000000 0.000000 0.000000 
-0.000791 1.016046 0.004847 -2.487527 -4.963737 -2.196607 -0.000077 0.626266 6.382256 1.803029 -0.180276 -0.707662 1.036593 3.493008 3.716471 0.000000 0.000000 0.000000 2.211542 -0.697840 5.709304 -0.910535 0.235382 2.891843 1.222281 0.315387 4.512385 0.000000 0.000000 0.000000 2.857333 -0.456308 7.220799 -0.685729 0.326621 0.525939 -1.763051 5.100811 4.765502 7.938547 -3.131551 -17.585490 0.000000 0.000000 0.000000 -22.963417 -8.003934 1.379330 -48.573982 -5.281655 -3.457525 -9.578420 -28.093475 3.271408 0.000000 0.000000 0.000000 24.250287 3.215790 0.610685 54.963236 5.697000 -3.072934 0.649770 24.687393 1.111949 0.000000 0.000000 0.000000 
-0.000849 1.016602 0.005072 -2.452160 -4.797892 -2.306832 -0.127308 0.642913 6.491847 2.048395 -0.216189 -0.532357 1.053257 3.179351 2.626304 0.000000 0.000000 0.000000 2.142271 -0.711019 5.874452 -0.876482 0.229703 2.862783 1.032674 0.189746 3.981015 0.000000 0.000000 0.000000 2.776918 -0.452115 7.243650 -0.647371 0.306816 0.702004 -1.366017 4.758914 4.646713 7.520222 -2.993270 -17.088208 0.000000 0.000000 0.000000 -22.858235 -7.480830 1.188533 -48.945616 -5.083482 -3.590034 -9.797994 -28.450828 3.388715 0.000000 0.000000 0.000000 23.958500 3.216729 0.501614 54.993201 6.027749 -2.878735 0.636746 24.570451 1.085424 0.000000 0.000000 0.000000 
-0.000820 1.016862 0.005283 -2.438011 -4.594758 -2.316984 -0.201065 0.658046 6.617653 2.232618 -0.233178 -0.590231 0.984555 2.954574 2.355860 0.000000 0.000000 0.000000 2.019071 -0.712101 5.957713 -0.912165 0.225663 2.697218 0.863612 -0.085221 3.795114 0.000000 0.000000 0.000000 2.708244 -0.442802 7.140390 -0.513715 0.240151 0.790308 -1.232597 4.628752 4.575349 7.364668 -2.948340 -16.799606 0.000000 0.000000 0.000000 -22.736600 -7.140321 1.013308 -49.362062 -5.001666 -3.657167 -10.118040 -28.233835 3.442857 0.000000 0.000000 0.000000 23.930771 3.235078 0.495506 54.863495 6.130551 -2.817191 0.691379 24.966722 1.114472 0.000000 0.000000 0.000000 
-0.000700 1.016876 0.005529 -2.472578 -4.444108 -2.340208 -0.430307 0.684103 6.756463 2.447400 -0.256734 -0.588216 0.929247 2.748283 2.073101 0.000000 0.000000 0.000000 2.236394 -0.759056 6.224689 -0.990510 0.219672 2.393316 0.652334 -0.409584 3.508986 0.000000 0.000000 0.000000 2.865763 -0.433859 6.828243 -0.626594 0.294228 1.018760 -0.860375 4.433988 4.741532 7.058640 -2.804908 -16.686657 0.000000 0.000000 0.000000 -22.675745 -6.685678 0.826943 -49.967805 -5.299992 -3.621120 -9.791691 -27.781271 3.321337 0.000000 0.000000 0.000000 23.832248 3.233138 0.438794 54.980341 6.495249 -2.653230 0.731138 25.253441 1.130758 0.000000 0.000000 0.000000 
-0.000529 1.016662 0.005805 -2.534605 -4.411112 -2.299096 -0.394357 0.684467 6.783995 2.526905 -0.265713 -0.582581 0.803143 2.303674 1.547963 0.000000 0.000000 0.000000 2.365844 -0.788166 6.389200 -1.069953 0.203130 1.891823 0.601357 -0.612460 3.669253 0.000000 0.000000 0.000000 2.990526 -0.425430 6.566475 -0.629972 0.294609 1.237492 -0.656798 4.528318 4.695722 6.950306 -2.740549 -16.615627 0.000000 0.000000 0.000000 -22.302762 -6.667957 0.818065 -50.638141 -5.441639 -3.611819 -9.920779 -27.101091 3.263527 0.000000 0.000000 0.000000 24.003442 3.106451 0.378290 54.768225 6.828091 -2.496815 0.822444 25.265496 1.152436 0.000000 0.000000 0.000000 
-0.000375 1.016036 0.006167 -2.462285 -4.271743 -2.419831 -0.339358 0.695207 6.931948 2.468216 -0.261875 -0.525566 0.630946 1.700779 0.884054 0.000000 0.000000 0.000000 2.435332 -0.827858 6.692052 -1.094793 0.190497 1.588165 0.525851 -0.608952 3.349923 0.000000 0.000000 0.000000 2.894794 -0.399293 6.244176 -0.573050 0.263289 1.620561 -0.279284 4.210137 4.784468 6.672011 -2.630171 -16.467887 0.000000 0.000000 0.000000 -22.262975 -6.275206 0.703294 -51.273504 -5.671697 -3.603797 -9.442617 -26.461522 3.093977 0.000000 0.000000 0.000000 24.029410 3.235059 0.347761 54.459693 6.935848 -2.421944 1.183259 25.258081 1.207617 0.000000 0.000000 0.000000 
-0.000308 1.015320 0.006735 -2.453351 -4.064918 -2.618328 -0.323599 0.737341 7.371801 2.535792 -0.252136 -0.824815 0.304364 0.964202 0.760206 0.000000 0.000000 0.000000 2.633887 -0.911491 7.280161 -1.270859 0.177708 0.956226 0.531984 -0.604121 3.386946 0.000000 0.000000 0.000000 2.812217 -0.379162 6.014641 -0.532308 0.239241 1.934781 0.030868 3.878181 4.691443 6.393570 -2.554548 -16.028256 0.000000 0.000000 0.000000 -22.159632 -5.918823 0.596079 -51.625060 -5.964289 -3.527270 -9.172043 -25.430586 2.925083 0.000000 0.000000 0.000000 24.093626 3.410144 0.346279 54.470422 6.967785 -2.375037 1.275279 25.351802 1.213209 0.000000 0.000000 0.000000 
-0.000312 1.014999 0.007422 -2.460636 -4.089852 -2.714694 -0.257798 0.776361 7.790578 2.475627 -0.229778 -1.113928 0.248871 0.541755 0.009632 0.000000 0.000000 0.000000 2.465582 -0.936423 7.634827 -1.198004 0.154642 0.665409 0.735739 -0.082930 3.301475 0.000000 0.000000 0.000000 2.617394 -0.344791 5.619007 -0.439577 0.190510 2.169147 0.371426 3.681242 4.882295 6.293326 -2.595598 -15.562365 0.000000 0.000000 0.000000 -22.296687 -5.799299 0.614393 -51.843684 -6.010012 -3.565007 -8.811010 -24.978715 2.810570 0.000000 0.000000 0.000000 24.377731 3.614315 0.369066 54.339062 6.799192 -2.447023 1.467023 25.708706 1.259553 0.000000 0.000000 0.000000 
-0.000332 1.015043 0.008133 -2.468521 -4.230600 -2.801720 -0.189497 0.794174 7.992028 2.344726 -0.217265 -1.099733 0.422496 0.550496 -0.888022 0.000000 0.000000 0.000000 2.480132 -0.938929 7.663749 -1.332020 0.177334 0.827459 0.981776 0.618621 3.068926 0.000000 0.000000 0.000000 2.560355 -0.318887 5.246773 -0.518502 0.229559 2.489380 0.546872 3.486548 4.818883 6.312141 -2.670431 -15.325532 0.000000 0.000000 0.000000 -22.476094 -5.706387 0.640355 -51.736552 -5.772788 -3.675766 -8.658061 -24.945466 2.788297 0.000000 0.000000 0.000000 24.595930 3.588945 0.237406 54.315700 6.401894 -2.594200 1.736588 25.999774 1.315141 0.000000 0.000000 0.000000 
